<?xml version="1.0" encoding="UTF-8" standalone="no"?>
<svg
   xmlns:dc="http://purl.org/dc/elements/1.1/"
   xmlns:cc="http://creativecommons.org/ns#"
   xmlns:rdf="http://www.w3.org/1999/02/22-rdf-syntax-ns#"
   xmlns:svg="http://www.w3.org/2000/svg"
   xmlns="http://www.w3.org/2000/svg"
   xmlns:sodipodi="http://sodipodi.sourceforge.net/DTD/sodipodi-0.dtd"
   xmlns:inkscape="http://www.inkscape.org/namespaces/inkscape"
   version="1.1"
   id="Layer_1"
   x="0px"
   y="0px"
   viewBox="0 0 144 144"
   style="enable-background:new 0 0 144 144;"
   xml:space="preserve"
   sodipodi:docname="Nodepool_icon.svg"
   inkscape:version="1.0.2 (e86c870879, 2021-01-15)"><metadata
   id="metadata1565"><rdf:RDF><cc:Work
       rdf:about=""><dc:format>image/svg+xml</dc:format><dc:type
         rdf:resource="http://purl.org/dc/dcmitype/StillImage" /><dc:title></dc:title></cc:Work></rdf:RDF></metadata><defs
   id="defs1563">
	
	
	
	
	
<filter
   inkscape:collect="always"
   style="color-interpolation-filters:sRGB"
   id="filter1634"
   x="-3.081134e-06"
   width="1.0000062"
   y="-3.5586197e-06"
   height="1.0000071"><feGaussianBlur
     inkscape:collect="always"
     stdDeviation="0.00015213099"
     id="feGaussianBlur1636" /></filter><filter
   inkscape:collect="always"
   style="color-interpolation-filters:sRGB"
   id="filter1638"
   x="-2.576353e-06"
   width="1.0000052"
   y="-2.0953449e-05"
   height="1.0000419"><feGaussianBlur
     inkscape:collect="always"
     stdDeviation="0.0002641349"
     id="feGaussianBlur1640" /></filter></defs><sodipodi:namedview
   pagecolor="#ffffff"
   bordercolor="#666666"
   borderopacity="1"
   objecttolerance="10"
   gridtolerance="10"
   guidetolerance="10"
   inkscape:pageopacity="0"
   inkscape:pageshadow="2"
   inkscape:window-width="1912"
   inkscape:window-height="1021"
   id="namedview1561"
   showgrid="false"
   inkscape:snap-object-midpoints="false"
   inkscape:zoom="2.7152778"
   inkscape:cx="1.2541398"
   inkscape:cy="102.51495"
   inkscape:window-x="0"
   inkscape:window-y="0"
   inkscape:window-maximized="1"
   inkscape:current-layer="Layer_1" />
<style
   type="text/css"
   id="style1546">
	.st0{fill:#071D49;}
</style>

<g
   id="g1718"><path
     class="st0"
     d="M 12.8,102.6 H 131.3 L 106,58.8 v -15 l 7,-9.2 H 92 L 72,0 52,34.7 H 31.1 l 7,9.2 v 15 z M 38,96.6 H 23.1 L 38,70.8 Z m 10.4,0 H 44 V 61.3 h 4.3 v 35.3 z m 0,-41.3 H 44 V 51 h 4.3 v 4.3 z M 69,96.6 H 54.3 V 61.3 H 69 Z m 20.7,0 H 75 V 61.3 h 14.7 z m 0,-41.3 H 54.3 V 51 h 35.3 v 4.3 z M 100,96.6 H 95.7 V 61.3 h 4.3 z m 0,-41.3 H 95.7 V 51 h 4.3 z m 6,15.5 14.9,25.8 H 106 Z M 72,12 85.1,34.7 H 58.9 Z m 28.9,28.7 -0.9,1.2 V 45 H 44 v -3.2 l -0.9,-1.2 h 57.8 z"
     id="path1548"
     style="opacity:0.991;filter:url(#filter1634)" /><g
     id="g1580"
     transform="matrix(0.57595946,0,0,0.57595946,36.338728,25.110677)"
     style="opacity:0.991;filter:url(#filter1638)"><path
       d="m -61.024256,150.1939 h 8.398438 l 10.605468,20 v -20 L -34.891443,153 v 26.35405 h -8.398438 l -10.605469,-20 v 20 l -7.128906,-3.00402 z"
       id="path968"
       style="font-style:normal;font-variant:normal;font-weight:bold;font-stretch:normal;font-size:40px;line-height:1.25;font-family:sans-serif;-inkscape-font-specification:'sans-serif, Bold';font-variant-ligatures:normal;font-variant-caps:normal;font-variant-numeric:normal;font-variant-east-asian:normal;letter-spacing:0px;word-spacing:0px;fill:#071d49;fill-opacity:1;stroke:none"
       sodipodi:nodetypes="ccccccccccc" /><path
       d="m -14.227381,155.11577 q -3.4375,0 -5.332031,2.53906 -1.894531,2.53907 -1.894531,7.14844 0,4.58985 1.894531,7.12891 1.894531,2.53906 5.332031,2.53906 3.457031,0 5.351563,-2.53906 1.894531,-2.53906 1.894531,-7.12891 0,-4.60937 -1.894531,-7.14844 -1.894532,-2.53906 -5.351563,-2.53906 z m 0,-5.44922 q 7.03125,0 11.015625,4.02344 3.984375,4.02344 3.984375,11.11328 0,7.07031 -3.984375,11.09375 -3.984375,4.02344 -11.015625,4.02344 -7.011719,0 -11.015625,-4.02344 -3.984375,-4.02344 -3.984375,-11.09375 0,-7.08984 3.984375,-11.11328 4.003906,-4.02344 11.015625,-4.02344 z"
       id="path970"
       style="font-style:normal;font-variant:normal;font-weight:bold;font-stretch:normal;font-size:40px;line-height:1.25;font-family:sans-serif;-inkscape-font-specification:'sans-serif, Bold';font-variant-ligatures:normal;font-variant-caps:normal;font-variant-numeric:normal;font-variant-east-asian:normal;letter-spacing:0px;word-spacing:0px;fill:#071d49;fill-opacity:1;stroke:none" /><path
       d="m 13.975744,155.87749 v 17.79297 h 2.695313 q 4.609375,0 7.03125,-2.28516 2.441406,-2.28515 2.441406,-6.64062 0,-4.33594 -2.421875,-6.60156 -2.421875,-2.26563 -7.050781,-2.26563 z M 6.456213,150.1939 H 14.3859 q 6.640625,0 9.882813,0.95703 3.261719,0.9375 5.585937,3.20312 2.050782,1.97266 3.046875,4.55078 0.996094,2.57813 0.996094,5.83985 0,3.30078 -0.996094,5.89844 -0.996093,2.57812 -3.046875,4.55078 -2.34375,2.26562 -5.625,3.22265 -3.28125,0.9375 -9.84375,0.9375 H 6.456213 Z"
       id="path972"
       style="font-style:normal;font-variant:normal;font-weight:bold;font-stretch:normal;font-size:40px;line-height:1.25;font-family:sans-serif;-inkscape-font-specification:'sans-serif, Bold';font-variant-ligatures:normal;font-variant-caps:normal;font-variant-numeric:normal;font-variant-east-asian:normal;letter-spacing:0px;word-spacing:0px;fill:#071d49;fill-opacity:1;stroke:none" /><path
       d="M 39.659338,150.1939 H 59.952307 L 57,155.87749 h -9.821131 v 5.42969 H 59.190588 L 56,166.99077 h -8.821131 v 6.67969 H 60.381994 L 57,179.35405 H 39.659338 Z"
       id="path974"
       style="font-style:normal;font-variant:normal;font-weight:bold;font-stretch:normal;font-size:40px;line-height:1.25;font-family:sans-serif;-inkscape-font-specification:'sans-serif, Bold';font-variant-ligatures:normal;font-variant-caps:normal;font-variant-numeric:normal;font-variant-east-asian:normal;letter-spacing:0px;word-spacing:0px;fill:#071d49;fill-opacity:1;stroke:none"
       sodipodi:nodetypes="ccccccccccccc" /><path
       d="m 66.983556,150.1939 h 12.48047 c 3.71094,0 6.555993,0.82682 8.53516,2.48047 1.992187,1.64062 2.98828,3.98437 2.98828,7.03125 0,3.05989 -0.996093,5.41666 -2.98828,7.07031 -1.979167,1.64063 -4.82422,2.46094 -8.53516,2.46094 h -4.96094 v 5.05859 L 72,179.35405 h -5.016444 z m 7.51953,5.44922 v 8.14453 h 4.16016 c 1.458333,0 2.584633,-0.35156 3.3789,-1.05469 0.794273,-0.71615 1.19141,-1.72526 1.19141,-3.02734 0,-1.30209 -0.397137,-2.30469 -1.19141,-3.00782 -0.794267,-0.70312 -1.920567,-1.05468 -3.3789,-1.05468 z"
       id="path976"
       style="font-style:normal;font-variant:normal;font-weight:bold;font-stretch:normal;font-size:40px;line-height:1.25;font-family:sans-serif;-inkscape-font-specification:'sans-serif, Bold';font-variant-ligatures:normal;font-variant-caps:normal;font-variant-numeric:normal;font-variant-east-asian:normal;letter-spacing:0px;word-spacing:0px;fill:#071d49;fill-opacity:1;stroke:none"
       sodipodi:nodetypes="cscscscccccccscsssc" /><path
       d="m 109.62028,155.11577 q -3.4375,0 -5.33203,2.53906 -1.89453,2.53907 -1.89453,7.14844 0,4.58985 1.89453,7.12891 1.89453,2.53906 5.33203,2.53906 3.45703,0 5.35156,-2.53906 1.89453,-2.53906 1.89453,-7.12891 0,-4.60937 -1.89453,-7.14844 -1.89453,-2.53906 -5.35156,-2.53906 z m 0,-5.44922 q 7.03125,0 11.01562,4.02344 3.98438,4.02344 3.98438,11.11328 0,7.07031 -3.98438,11.09375 -3.98437,4.02344 -11.01562,4.02344 -7.01172,0 -11.015634,-4.02344 -3.98437,-4.02344 -3.98437,-11.09375 0,-7.08984 3.98437,-11.11328 4.003914,-4.02344 11.015634,-4.02344 z"
       id="path978"
       style="font-style:normal;font-variant:normal;font-weight:bold;font-stretch:normal;font-size:40px;line-height:1.25;font-family:sans-serif;-inkscape-font-specification:'sans-serif, Bold';font-variant-ligatures:normal;font-variant-caps:normal;font-variant-numeric:normal;font-variant-east-asian:normal;letter-spacing:0px;word-spacing:0px;fill:#071d49;fill-opacity:1;stroke:none" /><path
       d="m 143.62419,155.11577 q -3.4375,0 -5.33204,2.53906 -1.89453,2.53907 -1.89453,7.14844 0,4.58985 1.89453,7.12891 1.89454,2.53906 5.33204,2.53906 3.45703,0 5.35156,-2.53906 1.89453,-2.53906 1.89453,-7.12891 0,-4.60937 -1.89453,-7.14844 -1.89453,-2.53906 -5.35156,-2.53906 z m 0,-5.44922 q 7.03125,0 11.01562,4.02344 3.98438,4.02344 3.98438,11.11328 0,7.07031 -3.98438,11.09375 -3.98437,4.02344 -11.01562,4.02344 -7.01172,0 -11.01563,-4.02344 -3.98437,-4.02344 -3.98437,-11.09375 0,-7.08984 3.98437,-11.11328 4.00391,-4.02344 11.01563,-4.02344 z"
       id="path980"
       style="font-style:normal;font-variant:normal;font-weight:bold;font-stretch:normal;font-size:40px;line-height:1.25;font-family:sans-serif;-inkscape-font-specification:'sans-serif, Bold';font-variant-ligatures:normal;font-variant-caps:normal;font-variant-numeric:normal;font-variant-east-asian:normal;letter-spacing:0px;word-spacing:0px;fill:#071d49;fill-opacity:1;stroke:none" /><path
       d="m 164.30778,153 7.51953,-2.8061 v 23.47656 H 182 l 3.03044,5.68359 h -20.72266 z"
       id="path982"
       style="font-style:normal;font-variant:normal;font-weight:bold;font-stretch:normal;font-size:40px;line-height:1.25;font-family:sans-serif;-inkscape-font-specification:'sans-serif, Bold';font-variant-ligatures:normal;font-variant-caps:normal;font-variant-numeric:normal;font-variant-east-asian:normal;letter-spacing:0px;word-spacing:0px;fill:#071d49;fill-opacity:1;stroke:none"
       sodipodi:nodetypes="ccccccc" /></g></g></svg>
