<?xml version="1.0" encoding="UTF-8" standalone="no"?>
<svg
   xmlns:dc="http://purl.org/dc/elements/1.1/"
   xmlns:cc="http://creativecommons.org/ns#"
   xmlns:rdf="http://www.w3.org/1999/02/22-rdf-syntax-ns#"
   xmlns:svg="http://www.w3.org/2000/svg"
   xmlns="http://www.w3.org/2000/svg"
   xmlns:sodipodi="http://sodipodi.sourceforge.net/DTD/sodipodi-0.dtd"
   xmlns:inkscape="http://www.inkscape.org/namespaces/inkscape"
   width="27"
   height="27"
   viewBox="0 0 7.14375 7.14375"
   version="1.1"
   id="svg8"
   sodipodi:docname="repoxplorer-logo-small.svg"
   inkscape:version="1.0.1 (3bc2e813f5, 2020-09-07)">
  <defs
     id="defs2" />
  <sodipodi:namedview
     id="base"
     pagecolor="#ffffff"
     bordercolor="#666666"
     borderopacity="1.0"
     inkscape:pageopacity="0.0"
     inkscape:pageshadow="2"
     inkscape:zoom="15.839192"
     inkscape:cx="38.788192"
     inkscape:cy="32.519534"
     inkscape:document-units="mm"
     inkscape:current-layer="layer2"
     showgrid="false"
     inkscape:window-width="3440"
     inkscape:window-height="1376"
     inkscape:window-x="0"
     inkscape:window-y="27"
     inkscape:window-maximized="1"
     inkscape:document-rotation="0"
     units="mm"
     viewbox-width="5.98542"
     inkscape:pagecheckerboard="false"
     inkscape:showpageshadow="true"
     borderlayer="false"
     scale-x="1"
     lock-margins="true"
     fit-margin-top="-2.7755576e-17"
     fit-margin-left="-2.7755576e-17"
     fit-margin-right="-2.7755576e-17"
     fit-margin-bottom="-2.7755576e-17"
     width="28mm" />
  <metadata
     id="metadata5">
    <rdf:RDF>
      <cc:Work
         rdf:about="">
        <dc:format>image/svg+xml</dc:format>
        <dc:type
           rdf:resource="http://purl.org/dc/dcmitype/StillImage" />
        <dc:title></dc:title>
      </cc:Work>
    </rdf:RDF>
  </metadata>
  <g
     inkscape:label="Calque 1"
     inkscape:groupmode="layer"
     id="layer1"
     transform="translate(-1.6348869,-86.908544)">
    <text
       xml:space="preserve"
       style="font-weight:bold;font-size:4.93889px;line-height:1.25;font-family:sans-serif;-inkscape-font-specification:'sans-serif Bold';letter-spacing:0px;word-spacing:0px;stroke-width:0.264583"
       x="53.921627"
       y="157.55212"
       id="text1267"><tspan
         sodipodi:role="line"
         id="tspan1265"
         x="53.921627"
         y="157.55212"
         style="stroke-width:0.264583" /></text>
  </g>
  <g
     inkscape:groupmode="layer"
     id="layer2"
     inkscape:label="Calque 2"
     transform="translate(-1.6348869,0.09145582)">
    <text
       xml:space="preserve"
       style="font-weight:bold;font-size:4.93889px;line-height:1.25;font-family:sans-serif;-inkscape-font-specification:'sans-serif Bold';letter-spacing:0px;word-spacing:0px;stroke-width:0.264583"
       x="3.2540064"
       y="5.3166504"
       id="text1149"
       inkscape:export-xdpi="96"
       inkscape:export-ydpi="96"><tspan
         sodipodi:role="line"
         id="tspan1147"
         x="3.2540064"
         y="5.3166504"
         style="font-style:normal;font-variant:normal;font-weight:bold;font-stretch:normal;font-size:4.93889px;font-family:sans-serif;-inkscape-font-specification:'sans-serif, Bold';font-variant-ligatures:normal;font-variant-caps:normal;font-variant-numeric:normal;font-feature-settings:normal;text-align:start;writing-mode:lr-tb;text-anchor:start;stroke-width:0.264583">X</tspan></text>
    <circle
       style="fill:#dcdcdc;fill-opacity:0.127209;stroke:#000000;stroke-width:0.265;stroke-miterlimit:4;stroke-dasharray:none;paint-order:markers stroke fill"
       id="path819-6-3"
       cx="6.6240249"
       cy="6.120018"
       r="0.8018086"
       inkscape:export-xdpi="96"
       inkscape:export-ydpi="96" />
    <path
       style="fill:#ffdd55;fill-opacity:0.127209;stroke:#000000;stroke-width:0.00299107;stroke-miterlimit:4;stroke-dasharray:none;paint-order:markers stroke fill"
       d="M 6.4896,6.7687641 C 6.180392,6.7015641 5.966138,6.4368945 5.966138,6.1221645 c 0,-0.18405 0.05772,-0.32706 0.185373,-0.45928 0.154527,-0.16006 0.367387,-0.23161 0.579112,-0.19465 0.275648,0.0481 0.483674,0.25035 0.542012,0.52689 0.07318,0.34691 -0.163671,0.6985996 -0.521015,0.7736196 -0.100042,0.021 -0.165452,0.021 -0.26202,10e-6 z"
       id="path1075-0"
       inkscape:connector-curvature="0"
       inkscape:export-xdpi="96"
       inkscape:export-ydpi="96" />
    <path
       style="fill:#ffdd55;fill-opacity:0.127209;stroke:#000000;stroke-width:0.00299107;stroke-miterlimit:4;stroke-dasharray:none;paint-order:markers stroke fill"
       d="M 6.469849,6.7559941 C 6.181022,6.6860941 5.9777,6.4237345 5.978089,6.1214945 c 2.52e-4,-0.19446 0.05229,-0.32048 0.188828,-0.45729 0.100764,-0.10097 0.199176,-0.15605 0.327361,-0.18321 0.101235,-0.0215 0.153755,-0.0214 0.257342,2.7e-4 0.250391,0.0526 0.442875,0.24044 0.507727,0.49556 0.07117,0.28 -0.08269,0.59732 -0.351948,0.7258496 -0.152924,0.073 -0.287973,0.0894 -0.43755,0.0532 z"
       id="path1077-2"
       inkscape:connector-curvature="0"
       inkscape:export-xdpi="96"
       inkscape:export-ydpi="96" />
    <path
       style="fill:#ffdd55;fill-opacity:0.127209;stroke:#000000;stroke-width:0.00299107;stroke-miterlimit:4;stroke-dasharray:none;paint-order:markers stroke fill"
       d="m 6.458586,6.7451641 c -0.0968,-0.0266 -0.184296,-0.0766 -0.263086,-0.1502996 -0.142211,-0.13303 -0.20574,-0.28147 -0.20574,-0.48072 0,-0.18298 0.04576,-0.29929 0.168159,-0.42736 0.125486,-0.1313 0.262498,-0.19784 0.428336,-0.20801 0.189048,-0.0116 0.363149,0.0582 0.495867,0.19894 0.122594,0.12995 0.183308,0.27409 0.183308,0.43519 0,0.1727 -0.05882,0.31572 -0.184748,0.44921 -0.08423,0.0893 -0.188264,0.1505196 -0.311346,0.1832296 -0.07925,0.0211 -0.233801,0.021 -0.31075,-1.8e-4 z"
       id="path1079-1"
       inkscape:connector-curvature="0"
       inkscape:export-xdpi="96"
       inkscape:export-ydpi="96" />
    <path
       style="fill:#ffdd55;fill-opacity:0.127209;stroke:#000000;stroke-width:0.00299107;stroke-miterlimit:4;stroke-dasharray:none;paint-order:markers stroke fill"
       d="m 6.432548,6.7298341 c -0.201763,-0.0698 -0.3791,-0.2641496 -0.419788,-0.4601296 -0.0081,-0.0392 -0.01185,-0.12242 -0.0089,-0.19957 0.0047,-0.12323 0.008,-0.13827 0.04784,-0.21883 0.06817,-0.13784 0.218713,-0.27465 0.363273,-0.33013 0.08235,-0.0316 0.255387,-0.0428 0.344019,-0.0223 0.206164,0.0477 0.393999,0.21858 0.466723,0.42458 0.0208,0.0589 0.02744,0.10325 0.02758,0.18391 2.65e-4,0.15631 -0.02643,0.24266 -0.113789,0.36783 -0.08935,0.12804 -0.206071,0.2118896 -0.357558,0.2568596 -0.08767,0.026 -0.271119,0.0249 -0.349409,-0.002 z"
       id="path1081-5"
       inkscape:connector-curvature="0"
       inkscape:export-xdpi="96"
       inkscape:export-ydpi="96" />
    <path
       style="fill:#ffdd55;fill-opacity:0.127209;stroke:#000000;stroke-width:0.00299107;stroke-miterlimit:4;stroke-dasharray:none;paint-order:markers stroke fill"
       d="m 6.426796,6.7197141 c -0.07802,-0.0271 -0.204263,-0.1147996 -0.266022,-0.1849096 -0.0297,-0.0337 -0.07368,-0.10089 -0.09774,-0.14928 l -0.04374,-0.088 v -0.1837 -0.18369 l 0.04,-0.0768 c 0.0598,-0.11479 0.197821,-0.24768 0.315693,-0.30397 l 0.09316,-0.0445 h 0.15946 0.159456 l 0.0935,0.0457 c 0.12871,0.0629 0.246788,0.18096 0.309671,0.30967 l 0.04568,0.0935 -2.65e-4,0.16537 c -2.64e-4,0.15287 -0.0026,0.17027 -0.03085,0.23032 -0.08379,0.17826 -0.223901,0.3072396 -0.396645,0.3651596 -0.09253,0.031 -0.29854,0.0338 -0.381302,0.005 z"
       id="path1083-6"
       inkscape:connector-curvature="0"
       inkscape:export-xdpi="96"
       inkscape:export-ydpi="96" />
    <path
       style="fill:#ffdd55;fill-opacity:0.127209;stroke:#000000;stroke-width:0.00299107;stroke-miterlimit:4;stroke-dasharray:none;paint-order:markers stroke fill"
       d="m 6.421801,6.7105741 c -0.06733,-0.0249 -0.200943,-0.1195596 -0.254019,-0.1798496 -0.02524,-0.0287 -0.06764,-0.094 -0.09424,-0.14507 l -0.04835,-0.0929 v -0.17963 c 0,-0.178 2.64e-4,-0.18024 0.0364,-0.24792 0.06989,-0.13113 0.222954,-0.27227 0.358103,-0.3302 0.0471,-0.0202 0.08146,-0.0241 0.210365,-0.0241 0.148741,0 0.156564,0.001 0.226396,0.0365 0.155853,0.0787 0.256064,0.17847 0.333253,0.33175 0.03931,0.0781 0.04028,0.0834 0.04021,0.22497 -6.8e-5,0.16689 -0.0089,0.20714 -0.06763,0.308 -0.06221,0.10684 -0.171829,0.20953 -0.28157,0.2637696 -0.09106,0.045 -0.09271,0.0453 -0.252124,0.0486 -0.118076,0.002 -0.172707,-0.001 -0.206801,-0.0139 z"
       id="path1085-5"
       inkscape:connector-curvature="0"
       inkscape:export-xdpi="96"
       inkscape:export-ydpi="96" />
    <path
       style="fill:#ffdd55;fill-opacity:0.127209;stroke:#000000;stroke-width:0.00299107;stroke-miterlimit:4;stroke-dasharray:none;paint-order:markers stroke fill"
       d="M 6.384262,6.6849141 C 6.244395,6.6106141 6.166325,6.5356345 6.090678,6.4028945 l -0.05367,-0.0942 v -0.18911 c 0,-0.18256 0.0011,-0.19136 0.03245,-0.25424 0.04879,-0.0979 0.200809,-0.24524 0.308727,-0.29914 l 0.08722,-0.0436 h 0.162566 0.162562 l 0.08226,0.0423 c 0.110591,0.0569 0.195863,0.13401 0.264623,0.23934 0.07763,0.11891 0.08391,0.146 0.07867,0.33913 -0.0041,0.15128 -0.0071,0.16967 -0.03633,0.22575 -0.04961,0.0951 -0.141433,0.1969 -0.229561,0.25464 -0.127775,0.0837 -0.158218,0.0918 -0.344699,0.0918 -0.153262,0 -0.166947,-0.002 -0.221231,-0.0307 z"
       id="path1087-0"
       inkscape:connector-curvature="0"
       inkscape:export-xdpi="96"
       inkscape:export-ydpi="96" />
    <path
       style="fill:#ffdd55;fill-opacity:0.127209;stroke:#000000;stroke-width:0.00299107;stroke-miterlimit:4;stroke-dasharray:none;paint-order:markers stroke fill"
       d="M 6.362508,6.6651341 C 6.261511,6.6103341 6.174974,6.5259345 6.107598,6.4164545 l -0.05878,-0.0955 v -0.19873 c 0,-0.19054 0.0013,-0.20123 0.03067,-0.25925 0.03995,-0.0788 0.19118,-0.22804 0.288065,-0.28419 l 0.07642,-0.0443 h 0.183893 0.183896 l 0.08804,0.054 c 0.108852,0.0668 0.163621,0.11875 0.229415,0.21765 0.07246,0.10894 0.08019,0.14426 0.07509,0.34312 -0.005,0.19465 -0.01228,0.21613 -0.115234,0.33985 -0.06387,0.0768 -0.21164,0.1829396 -0.281623,0.2023696 -0.02421,0.007 -0.118435,0.0121 -0.209386,0.012 -0.163679,-2.5e-4 -0.166079,-5.3e-4 -0.235558,-0.0383 z"
       id="path1125-0"
       inkscape:connector-curvature="0"
       inkscape:export-xdpi="96"
       inkscape:export-ydpi="96" />
    <path
       style="fill:#ffdd55;fill-opacity:0.127209;stroke:#000000;stroke-width:0.00299107;stroke-miterlimit:4;stroke-dasharray:none;paint-order:markers stroke fill"
       d="M 6.361651,6.6582341 C 6.270691,6.6054341 6.184507,6.5215445 6.119591,6.4226645 l -0.05896,-0.0898 v -0.20647 c 0,-0.18696 0.0024,-0.21143 0.02532,-0.25879 0.03274,-0.0676 0.175747,-0.21224 0.270404,-0.27342 l 0.0741,-0.0479 H 6.62548 6.820504 l 0.0861,0.0537 c 0.103878,0.0647 0.20013,0.16794 0.25206,0.27025 l 0.03837,0.0756 -0.0042,0.19299 c -0.0041,0.18832 -0.005,0.19442 -0.03864,0.25205 -0.04574,0.0784 -0.162047,0.19155 -0.255858,0.2489096 l -0.07585,0.0464 -0.2008,0.003 -0.200798,0.003 z"
       id="path1127-3"
       inkscape:connector-curvature="0"
       inkscape:export-xdpi="96"
       inkscape:export-ydpi="96" />
    <circle
       style="fill:#dcdcdc;fill-opacity:0.127209;stroke:#000000;stroke-width:0.265;stroke-miterlimit:4;stroke-dasharray:none;paint-order:markers stroke fill"
       id="path819-6-4"
       cx="3.7385263"
       cy="0.89842939"
       r="0.8018086"
       inkscape:export-xdpi="96"
       inkscape:export-ydpi="96" />
    <path
       style="fill:#ffdd55;fill-opacity:0.127209;stroke:#000000;stroke-width:0.00299107;stroke-miterlimit:4;stroke-dasharray:none;paint-order:markers stroke fill"
       d="m 3.603983,1.5471045 c -0.309208,-0.0672 -0.523462,-0.33187 -0.523462,-0.64659989 0,-0.18405 0.05772,-0.32706 0.185373,-0.45928003 0.154527,-0.16006 0.367387,-0.23161 0.579112,-0.19465 0.275648,0.0481 0.483674,0.25035 0.542012,0.52689003 0.07318,0.34690989 -0.163671,0.69859989 -0.521015,0.77361989 -0.100042,0.021 -0.165452,0.021 -0.26202,1e-5 z"
       id="path1075-6"
       inkscape:connector-curvature="0"
       inkscape:export-xdpi="96"
       inkscape:export-ydpi="96" />
    <path
       style="fill:#ffdd55;fill-opacity:0.127209;stroke:#000000;stroke-width:0.00299107;stroke-miterlimit:4;stroke-dasharray:none;paint-order:markers stroke fill"
       d="m 3.584232,1.5343345 c -0.288827,-0.0699 -0.492149,-0.33226 -0.49176,-0.63449989 2.52e-4,-0.19446 0.05229,-0.32048 0.188828,-0.45729003 0.100764,-0.10097 0.199176,-0.15605 0.327361,-0.18321 0.101235,-0.0215 0.153755,-0.0214 0.257342,2.7e-4 0.250391,0.0526 0.442875,0.24044 0.507727,0.49556003 C 4.4449,1.0351645 4.29104,1.3524845 4.021782,1.4810145 c -0.152924,0.073 -0.287973,0.0894 -0.43755,0.0532 z"
       id="path1077-6"
       inkscape:connector-curvature="0"
       inkscape:export-xdpi="96"
       inkscape:export-ydpi="96" />
    <path
       style="fill:#ffdd55;fill-opacity:0.127209;stroke:#000000;stroke-width:0.00299107;stroke-miterlimit:4;stroke-dasharray:none;paint-order:markers stroke fill"
       d="m 3.572969,1.5235045 c -0.0968,-0.0266 -0.184296,-0.0766 -0.263086,-0.1503 -0.142211,-0.13303 -0.2057401,-0.28147 -0.2057401,-0.48071989 0,-0.18298 0.04576,-0.29929 0.1681591,-0.42736003 0.125486,-0.1313 0.262498,-0.19784 0.428336,-0.20801 0.189048,-0.0116 0.363149,0.0582 0.495867,0.19894 0.122594,0.12995003 0.183308,0.27409003 0.183308,0.43519003 0,0.17269989 -0.05882,0.31571989 -0.184748,0.44920989 -0.08423,0.0893 -0.188264,0.15052 -0.311346,0.18323 -0.07925,0.0211 -0.233801,0.021 -0.31075,-1.8e-4 z"
       id="path1079-0"
       inkscape:connector-curvature="0"
       inkscape:export-xdpi="96"
       inkscape:export-ydpi="96" />
    <path
       style="fill:#ffdd55;fill-opacity:0.127209;stroke:#000000;stroke-width:0.00299107;stroke-miterlimit:4;stroke-dasharray:none;paint-order:markers stroke fill"
       d="m 3.546931,1.5081745 c -0.201763,-0.0698 -0.3791,-0.26415 -0.4197881,-0.46013 -0.0081,-0.0392 -0.01185,-0.12241999 -0.0089,-0.19956989 0.0047,-0.12323 0.008,-0.13827 0.04784,-0.21883 0.06817,-0.13784003 0.218713,-0.27465003 0.363273,-0.33013003 0.08235,-0.0316 0.255387,-0.0428 0.344019,-0.0223 0.206164,0.0477 0.393999,0.21858 0.466723,0.42458003 0.0208,0.0589 0.02744,0.10325 0.02758,0.18391 2.65e-4,0.15630989 -0.02643,0.24265989 -0.113789,0.36782989 -0.08935,0.12804 -0.206071,0.21189 -0.357558,0.25686 -0.08767,0.026 -0.271119,0.0249 -0.349409,-0.002 z"
       id="path1081-2"
       inkscape:connector-curvature="0"
       inkscape:export-xdpi="96"
       inkscape:export-ydpi="96" />
    <path
       style="fill:#ffdd55;fill-opacity:0.127209;stroke:#000000;stroke-width:0.00299107;stroke-miterlimit:4;stroke-dasharray:none;paint-order:markers stroke fill"
       d="m 3.541179,1.4980545 c -0.07802,-0.0271 -0.204263,-0.1148 -0.266022,-0.18491 -0.0297,-0.0337 -0.07368,-0.10089 -0.09774,-0.14928 l -0.04374,-0.088 v -0.18369989 -0.18369 l 0.04,-0.0768 c 0.0598,-0.11479 0.197821,-0.24768003 0.315693,-0.30397003 l 0.09316,-0.0445 h 0.15946 0.159456 l 0.0935,0.0457 c 0.12871,0.0629 0.246788,0.18096003 0.309671,0.30967003 l 0.04568,0.0935 -2.65e-4,0.16537 c -2.64e-4,0.15286989 -0.0026,0.17026989 -0.03085,0.23031989 -0.08379,0.17826 -0.223901,0.30724 -0.396645,0.36516 -0.09253,0.031 -0.29854,0.0338 -0.381302,0.005 z"
       id="path1083-5"
       inkscape:connector-curvature="0"
       inkscape:export-xdpi="96"
       inkscape:export-ydpi="96" />
    <path
       style="fill:#ffdd55;fill-opacity:0.127209;stroke:#000000;stroke-width:0.00299107;stroke-miterlimit:4;stroke-dasharray:none;paint-order:markers stroke fill"
       d="m 3.536184,1.4889145 c -0.06733,-0.0249 -0.200943,-0.11956 -0.254019,-0.17985 -0.02524,-0.0287 -0.06764,-0.094 -0.09424,-0.14507 l -0.04835,-0.0929 V 0.89146461 c 0,-0.178 2.64e-4,-0.18024 0.0364,-0.24792 0.06989,-0.13113 0.222954,-0.27227003 0.358103,-0.33020003 0.0471,-0.0202 0.08146,-0.0241 0.210365,-0.0241 0.148741,0 0.156564,0.001 0.226396,0.0365 0.155853,0.0787 0.256064,0.17847003 0.333253,0.33175003 0.03931,0.0781 0.04028,0.0834 0.04021,0.22497 -6.8e-5,0.16688989 -0.0089,0.20713989 -0.06763,0.30799989 -0.06221,0.10684 -0.171829,0.20953 -0.28157,0.26377 -0.09106,0.045 -0.09271,0.0453 -0.252124,0.0486 -0.118076,0.002 -0.172707,-0.001 -0.206801,-0.0139 z"
       id="path1085-8"
       inkscape:connector-curvature="0"
       inkscape:export-xdpi="96"
       inkscape:export-ydpi="96" />
    <path
       style="fill:#ffdd55;fill-opacity:0.127209;stroke:#000000;stroke-width:0.00299107;stroke-miterlimit:4;stroke-dasharray:none;paint-order:markers stroke fill"
       d="m 3.498645,1.4632545 c -0.139867,-0.0743 -0.217937,-0.14928 -0.293584,-0.28202 l -0.05367,-0.0942 V 0.89792461 c 0,-0.18256 0.0011,-0.19136 0.03245,-0.25424 0.04879,-0.0979 0.200809,-0.24524003 0.308727,-0.29914003 l 0.08722,-0.0436 h 0.162566 0.162562 l 0.08226,0.0423 c 0.110591,0.0569 0.195863,0.13401 0.264623,0.23934003 0.07763,0.11891 0.08391,0.146 0.07867,0.3391299 -0.0041,0.15127999 -0.0071,0.16966999 -0.03633,0.22574999 -0.04961,0.0951 -0.141433,0.1969 -0.229561,0.25464 -0.127775,0.0837 -0.158218,0.0918 -0.344699,0.0918 -0.153262,0 -0.166947,-0.002 -0.221231,-0.0307 z"
       id="path1087-9"
       inkscape:connector-curvature="0"
       inkscape:export-xdpi="96"
       inkscape:export-ydpi="96" />
    <path
       style="fill:#ffdd55;fill-opacity:0.127209;stroke:#000000;stroke-width:0.00299107;stroke-miterlimit:4;stroke-dasharray:none;paint-order:markers stroke fill"
       d="m 3.476891,1.4434745 c -0.100997,-0.0548 -0.187534,-0.1392 -0.25491,-0.24868 l -0.05878,-0.0955 V 0.90056461 c 0,-0.19054 0.0013,-0.20123 0.03067,-0.25925 0.03995,-0.0788 0.19118,-0.22804003 0.288065,-0.28419003 l 0.07642,-0.0443 h 0.183893 0.183896 l 0.08804,0.054 c 0.108852,0.0668 0.163621,0.11875 0.229415,0.21765003 0.07246,0.10894 0.08019,0.14426 0.07509,0.3431199 -0.005,0.19464999 -0.01228,0.21612999 -0.115234,0.33984999 -0.06387,0.0768 -0.21164,0.18294 -0.281623,0.20237 -0.02421,0.007 -0.118435,0.0121 -0.209386,0.012 -0.163679,-2.5e-4 -0.166079,-5.3e-4 -0.235558,-0.0383 z"
       id="path1125-5"
       inkscape:connector-curvature="0"
       inkscape:export-xdpi="96"
       inkscape:export-ydpi="96" />
    <circle
       style="fill:#dcdcdc;fill-opacity:0.127209;stroke:#000000;stroke-width:0.265;stroke-miterlimit:4;stroke-dasharray:none;paint-order:markers stroke fill"
       id="path819-6-6"
       cx="3.7384996"
       cy="6.0433569"
       r="0.8018086"
       inkscape:export-xdpi="96"
       inkscape:export-ydpi="96" />
    <path
       style="fill:#ffdd55;fill-opacity:0.127209;stroke:#000000;stroke-width:0.00299107;stroke-miterlimit:4;stroke-dasharray:none;paint-order:markers stroke fill"
       d="M 3.603996,6.6920141 C 3.294788,6.6248141 3.080534,6.3601445 3.080534,6.0454145 c 0,-0.18405 0.05772,-0.32706 0.185373,-0.45928 0.154527,-0.16006 0.367387,-0.23161 0.579112,-0.19465 0.275648,0.0481 0.483674,0.25035 0.542012,0.52689 0.07318,0.34691 -0.163671,0.6986 -0.521015,0.7736196 -0.100042,0.021 -0.165452,0.021 -0.26202,1e-5 z"
       id="path1075-08"
       inkscape:connector-curvature="0"
       inkscape:export-xdpi="96"
       inkscape:export-ydpi="96" />
    <path
       style="fill:#ffdd55;fill-opacity:0.127209;stroke:#000000;stroke-width:0.00299107;stroke-miterlimit:4;stroke-dasharray:none;paint-order:markers stroke fill"
       d="m 3.584245,6.6792441 c -0.288827,-0.0699 -0.492149,-0.3322596 -0.49176,-0.6344996 2.52e-4,-0.19446 0.05229,-0.32048 0.188828,-0.45729 0.100764,-0.10097 0.199176,-0.15605 0.327361,-0.18321 0.101235,-0.0215 0.153755,-0.0214 0.257342,2.7e-4 0.250391,0.0526 0.442875,0.24044 0.507727,0.49556 0.07117,0.28 -0.08269,0.59732 -0.351948,0.72585 -0.152924,0.073 -0.287973,0.0894 -0.43755,0.0532 z"
       id="path1077-3"
       inkscape:connector-curvature="0"
       inkscape:export-xdpi="96"
       inkscape:export-ydpi="96" />
    <path
       style="fill:#ffdd55;fill-opacity:0.127209;stroke:#000000;stroke-width:0.00299107;stroke-miterlimit:4;stroke-dasharray:none;paint-order:markers stroke fill"
       d="m 3.572982,6.6684141 c -0.0968,-0.0266 -0.184296,-0.0766 -0.263086,-0.1502996 -0.142211,-0.13303 -0.2057401,-0.28147 -0.2057401,-0.48072 0,-0.18298 0.04576,-0.29929 0.1681591,-0.42736 0.125486,-0.1313 0.262498,-0.19784 0.428336,-0.20801 0.189048,-0.0116 0.363149,0.0582 0.495867,0.19894 0.122594,0.12995 0.183308,0.27409 0.183308,0.43519 0,0.1727 -0.05882,0.31572 -0.184748,0.44921 -0.08423,0.0893 -0.188264,0.1505196 -0.311346,0.1832296 -0.07925,0.0211 -0.233801,0.021 -0.31075,-1.8e-4 z"
       id="path1079-7"
       inkscape:connector-curvature="0"
       inkscape:export-xdpi="96"
       inkscape:export-ydpi="96" />
    <path
       style="fill:#ffdd55;fill-opacity:0.127209;stroke:#000000;stroke-width:0.00299107;stroke-miterlimit:4;stroke-dasharray:none;paint-order:markers stroke fill"
       d="m 3.546944,6.6530841 c -0.201763,-0.0698 -0.3791,-0.2641496 -0.4197881,-0.4601296 -0.0081,-0.0392 -0.01185,-0.12242 -0.0089,-0.19957 0.0047,-0.12323 0.008,-0.13827 0.04784,-0.21883 0.06817,-0.13784 0.218713,-0.27465 0.363273,-0.33013 0.08235,-0.0316 0.255387,-0.0428 0.344019,-0.0223 0.206164,0.0477 0.393999,0.21858 0.466723,0.42458 0.0208,0.0589 0.02744,0.10325 0.02758,0.18391 2.64e-4,0.15631 -0.02643,0.24266 -0.113789,0.36783 -0.08935,0.12804 -0.206071,0.21189 -0.357558,0.2568596 -0.08767,0.026 -0.271119,0.0249 -0.349409,-0.002 z"
       id="path1081-8"
       inkscape:connector-curvature="0"
       inkscape:export-xdpi="96"
       inkscape:export-ydpi="96" />
    <path
       style="fill:#ffdd55;fill-opacity:0.127209;stroke:#000000;stroke-width:0.00299107;stroke-miterlimit:4;stroke-dasharray:none;paint-order:markers stroke fill"
       d="M 3.541192,6.6429641 C 3.463172,6.6158641 3.336929,6.5281645 3.27517,6.4580545 c -0.0297,-0.0337 -0.07368,-0.10089 -0.09774,-0.14928 l -0.04374,-0.088 v -0.1837 -0.18369 l 0.04,-0.0768 c 0.0598,-0.11479 0.197821,-0.24768 0.315693,-0.30397 l 0.09316,-0.0445 h 0.15946 0.159456 l 0.0935,0.0457 c 0.12871,0.0629 0.246788,0.18096 0.309671,0.30967 l 0.04568,0.0935 -2.65e-4,0.16537 c -2.64e-4,0.15287 -0.0026,0.17027 -0.03085,0.23032 -0.08379,0.17826 -0.223901,0.30724 -0.396645,0.3651596 -0.09253,0.031 -0.29854,0.0338 -0.381302,0.005 z"
       id="path1083-2"
       inkscape:connector-curvature="0"
       inkscape:export-xdpi="96"
       inkscape:export-ydpi="96" />
    <path
       style="fill:#ffdd55;fill-opacity:0.127209;stroke:#000000;stroke-width:0.00299107;stroke-miterlimit:4;stroke-dasharray:none;paint-order:markers stroke fill"
       d="m 3.536197,6.6338241 c -0.06733,-0.0249 -0.200943,-0.1195596 -0.254019,-0.1798496 -0.02524,-0.0287 -0.06764,-0.094 -0.09424,-0.14507 l -0.04835,-0.0929 v -0.17963 c 0,-0.178 2.64e-4,-0.18024 0.0364,-0.24792 0.06989,-0.13113 0.222954,-0.27227 0.358103,-0.3302 0.0471,-0.0202 0.08146,-0.0241 0.210365,-0.0241 0.148741,0 0.156564,0.001 0.226396,0.0365 0.155853,0.0787 0.256064,0.17847 0.333253,0.33175 0.03931,0.0781 0.04028,0.0834 0.04021,0.22497 -6.8e-5,0.16689 -0.0089,0.20714 -0.06763,0.308 -0.06221,0.10684 -0.171829,0.20953 -0.28157,0.26377 -0.09106,0.045 -0.09271,0.0453 -0.252124,0.0486 -0.118076,0.002 -0.172707,-0.001 -0.206801,-0.0139 z"
       id="path1085-1"
       inkscape:connector-curvature="0"
       inkscape:export-xdpi="96"
       inkscape:export-ydpi="96" />
    <path
       style="fill:#ffdd55;fill-opacity:0.127209;stroke:#000000;stroke-width:0.00299107;stroke-miterlimit:4;stroke-dasharray:none;paint-order:markers stroke fill"
       d="m 3.498658,6.6081645 c -0.139867,-0.0743 -0.217937,-0.14928 -0.293584,-0.28202 l -0.05367,-0.0942 v -0.18911 c 0,-0.18256 0.0011,-0.19136 0.03245,-0.25424 0.04879,-0.0979 0.200809,-0.24524 0.308727,-0.29914 l 0.08722,-0.0436 h 0.162566 0.162562 l 0.08226,0.0423 c 0.110591,0.0569 0.195863,0.13401 0.264623,0.23934 0.07763,0.11891 0.08391,0.146 0.07867,0.33913 -0.0041,0.15128 -0.0071,0.16967 -0.03633,0.22575 -0.04961,0.0951 -0.141433,0.1969 -0.229561,0.25464 -0.127775,0.0837 -0.158218,0.0918 -0.344699,0.0918 -0.153262,0 -0.166947,-0.002 -0.221231,-0.0307 z"
       id="path1087-05"
       inkscape:connector-curvature="0"
       inkscape:export-xdpi="96"
       inkscape:export-ydpi="96" />
    <path
       style="fill:#ffdd55;fill-opacity:0.127209;stroke:#000000;stroke-width:0.00299107;stroke-miterlimit:4;stroke-dasharray:none;paint-order:markers stroke fill"
       d="m 3.476904,6.5883845 c -0.100997,-0.0548 -0.187534,-0.1392 -0.25491,-0.24868 l -0.05878,-0.0955 v -0.19873 c 0,-0.19054 0.0013,-0.20123 0.03067,-0.25925 0.03995,-0.0788 0.19118,-0.22804 0.288065,-0.28419 l 0.07642,-0.0443 h 0.183893 0.183896 l 0.08804,0.054 c 0.108852,0.0668 0.163621,0.11875 0.229415,0.21765 0.07246,0.10894 0.08019,0.14426 0.07509,0.34312 -0.005,0.19465 -0.01228,0.21613 -0.115234,0.33985 -0.06387,0.0768 -0.21164,0.18294 -0.281623,0.20237 -0.02421,0.007 -0.118435,0.0121 -0.209386,0.012 -0.163679,-2.5e-4 -0.166079,-5.3e-4 -0.235558,-0.0383 z"
       id="path1125-8"
       inkscape:connector-curvature="0"
       inkscape:export-xdpi="96"
       inkscape:export-ydpi="96" />
    <path
       style="fill:#ffdd55;fill-opacity:0.127209;stroke:#000000;stroke-width:0.00299107;stroke-miterlimit:4;stroke-dasharray:none;paint-order:markers stroke fill"
       d="m 3.476047,6.5814845 c -0.09096,-0.0528 -0.177144,-0.13669 -0.24206,-0.23557 l -0.05896,-0.0898 v -0.20647 c 0,-0.18696 0.0024,-0.21143 0.02532,-0.25879 0.03274,-0.0676 0.175747,-0.21224 0.270404,-0.27342 l 0.0741,-0.0479 H 3.739876 3.9349 l 0.0861,0.0537 c 0.103878,0.0647 0.20013,0.16794 0.25206,0.27025 l 0.03837,0.0756 -0.0042,0.19299 c -0.0041,0.18832 -0.005,0.19442 -0.03864,0.25205 -0.04574,0.0784 -0.162047,0.19155 -0.255858,0.24891 l -0.07585,0.0464 -0.2008,0.003 -0.200798,0.003 z"
       id="path1127-5"
       inkscape:connector-curvature="0"
       inkscape:export-xdpi="96"
       inkscape:export-ydpi="96" />
    <circle
       style="fill:#dcdcdc;fill-opacity:0.127209;stroke:#000000;stroke-width:0.265;stroke-miterlimit:4;stroke-dasharray:none;paint-order:markers stroke fill"
       id="path819-6-5"
       cx="6.4564643"
       cy="0.89296579"
       r="0.8018086"
       inkscape:export-xdpi="96"
       inkscape:export-ydpi="96" />
    <path
       style="fill:#ffdd55;fill-opacity:0.127209;stroke:#000000;stroke-width:0.00299107;stroke-miterlimit:4;stroke-dasharray:none;paint-order:markers stroke fill"
       d="m 6.322047,1.5414845 c -0.309208,-0.0672 -0.523462,-0.33187 -0.523462,-0.64659989 0,-0.18405 0.05772,-0.32706 0.185373,-0.45928003 0.154527,-0.16006 0.367387,-0.23161 0.579112,-0.19465 0.275648,0.0481 0.483674,0.25035 0.542012,0.52689003 0.07318,0.34690989 -0.163671,0.69859989 -0.521015,0.77361989 -0.100042,0.021 -0.165452,0.021 -0.26202,1e-5 z"
       id="path1075-07"
       inkscape:connector-curvature="0"
       inkscape:export-xdpi="96"
       inkscape:export-ydpi="96" />
    <path
       style="fill:#ffdd55;fill-opacity:0.127209;stroke:#000000;stroke-width:0.00299107;stroke-miterlimit:4;stroke-dasharray:none;paint-order:markers stroke fill"
       d="m 6.302296,1.5287145 c -0.288827,-0.0699 -0.492149,-0.33226 -0.49176,-0.63449989 2.52e-4,-0.19446 0.05229,-0.32048 0.188828,-0.45729003 0.100764,-0.10097 0.199176,-0.15605 0.327361,-0.18321 0.101235,-0.0215 0.153755,-0.0214 0.257342,2.7e-4 0.250391,0.0526 0.442875,0.24044 0.507727,0.49556003 0.07117,0.27999989 -0.08269,0.59731989 -0.351948,0.72584989 -0.152924,0.073 -0.287973,0.0894 -0.43755,0.0532 z"
       id="path1077-38"
       inkscape:connector-curvature="0"
       inkscape:export-xdpi="96"
       inkscape:export-ydpi="96" />
    <path
       style="fill:#ffdd55;fill-opacity:0.127209;stroke:#000000;stroke-width:0.00299107;stroke-miterlimit:4;stroke-dasharray:none;paint-order:markers stroke fill"
       d="m 6.291033,1.5178845 c -0.0968,-0.0266 -0.184296,-0.0766 -0.263086,-0.1503 -0.142211,-0.13303 -0.20574,-0.28147 -0.20574,-0.48071989 0,-0.18298 0.04576,-0.29929 0.168159,-0.42736003 0.125486,-0.1313 0.262498,-0.19784 0.428336,-0.20801 0.189048,-0.0116 0.363149,0.0582 0.495867,0.19894 0.122594,0.12995003 0.183308,0.27409003 0.183308,0.43519003 0,0.17269989 -0.05882,0.31571989 -0.184748,0.44920989 -0.08423,0.0893 -0.188264,0.15052 -0.311346,0.18323 -0.07925,0.0211 -0.233801,0.021 -0.31075,-1.8e-4 z"
       id="path1079-2"
       inkscape:connector-curvature="0"
       inkscape:export-xdpi="96"
       inkscape:export-ydpi="96" />
    <path
       style="fill:#ffdd55;fill-opacity:0.127209;stroke:#000000;stroke-width:0.00299107;stroke-miterlimit:4;stroke-dasharray:none;paint-order:markers stroke fill"
       d="m 6.264995,1.5025545 c -0.201763,-0.0698 -0.3791,-0.26415 -0.419788,-0.46013 -0.0081,-0.0392 -0.01185,-0.12241999 -0.0089,-0.19956989 0.0047,-0.12323 0.008,-0.13827 0.04784,-0.21883 0.06817,-0.13784003 0.218713,-0.27465003 0.363273,-0.33013003 0.08235,-0.0316 0.255387,-0.0428 0.344019,-0.0223 0.206164,0.0477 0.393999,0.21858 0.466723,0.42458003 0.0208,0.0589 0.02744,0.10325 0.02758,0.18391 2.65e-4,0.15630989 -0.02643,0.24265989 -0.113789,0.36782989 -0.08935,0.12804 -0.206071,0.21189 -0.357558,0.25686 -0.08767,0.026 -0.271119,0.0249 -0.349409,-0.002 z"
       id="path1081-3"
       inkscape:connector-curvature="0"
       inkscape:export-xdpi="96"
       inkscape:export-ydpi="96" />
    <path
       style="fill:#ffdd55;fill-opacity:0.127209;stroke:#000000;stroke-width:0.00299107;stroke-miterlimit:4;stroke-dasharray:none;paint-order:markers stroke fill"
       d="m 6.259243,1.4924345 c -0.07802,-0.0271 -0.204263,-0.1148 -0.266022,-0.18491 -0.0297,-0.0337 -0.07368,-0.10089 -0.09774,-0.14928 l -0.04374,-0.088 v -0.18369989 -0.18369 l 0.04,-0.0768 c 0.0598,-0.11479 0.197821,-0.24768003 0.315693,-0.30397003 l 0.09316,-0.0445 h 0.15946 0.159456 l 0.0935,0.0457 c 0.12871,0.0629 0.246788,0.18096003 0.309671,0.30967003 l 0.04568,0.0935 -2.64e-4,0.16537 c -2.65e-4,0.15286989 -0.0026,0.17026989 -0.03085,0.23031989 -0.08379,0.17826 -0.223901,0.30724 -0.396645,0.36516 -0.09253,0.031 -0.298541,0.0338 -0.381302,0.005 z"
       id="path1083-0"
       inkscape:connector-curvature="0"
       inkscape:export-xdpi="96"
       inkscape:export-ydpi="96" />
    <path
       style="fill:#ffdd55;fill-opacity:0.127209;stroke:#000000;stroke-width:0.00299107;stroke-miterlimit:4;stroke-dasharray:none;paint-order:markers stroke fill"
       d="m 6.254248,1.4832945 c -0.06733,-0.0249 -0.200943,-0.11956 -0.254019,-0.17985 -0.02524,-0.0287 -0.06764,-0.094 -0.09424,-0.14507 l -0.04835,-0.0929 V 0.88584461 c 0,-0.178 2.64e-4,-0.18024 0.0364,-0.24792 0.06989,-0.13113 0.222954,-0.27227003 0.358103,-0.33020003 0.0471,-0.0202 0.08146,-0.0241 0.210365,-0.0241 0.148741,0 0.156564,0.001 0.226396,0.0365 0.155853,0.0787 0.256064,0.17847 0.333253,0.33175003 0.03931,0.0781 0.04028,0.0834 0.04021,0.22497 -6.8e-5,0.16688989 -0.0089,0.20713989 -0.06763,0.30799989 -0.06221,0.10684 -0.171829,0.20953 -0.28157,0.26377 -0.09106,0.045 -0.09271,0.0453 -0.252124,0.0486 -0.118076,0.002 -0.172707,-10e-4 -0.206801,-0.0139 z"
       id="path1085-7"
       inkscape:connector-curvature="0"
       inkscape:export-xdpi="96"
       inkscape:export-ydpi="96" />
    <path
       style="fill:#ffdd55;fill-opacity:0.127209;stroke:#000000;stroke-width:0.00299107;stroke-miterlimit:4;stroke-dasharray:none;paint-order:markers stroke fill"
       d="m 6.216709,1.4576345 c -0.139867,-0.0743 -0.217937,-0.14928 -0.293584,-0.28202 l -0.05367,-0.0942 V 0.89230461 c 0,-0.18256 0.0011,-0.19136 0.03245,-0.25424 0.04879,-0.0979 0.200809,-0.24524003 0.308727,-0.29914003 l 0.08722,-0.0436 H 6.460418 6.62298 l 0.08226,0.0423 c 0.110591,0.0569 0.195863,0.13401 0.264623,0.23934003 0.07763,0.11891 0.08391,0.146 0.07867,0.33913 -0.0041,0.15127989 -0.0071,0.16966989 -0.03633,0.22574989 -0.04961,0.0951 -0.141433,0.1969 -0.229561,0.25464 -0.127775,0.0837 -0.158218,0.0918 -0.344699,0.0918 -0.153262,0 -0.166947,-0.002 -0.221231,-0.0307 z"
       id="path1087-7"
       inkscape:connector-curvature="0"
       inkscape:export-xdpi="96"
       inkscape:export-ydpi="96" />
    <path
       style="fill:#ffdd55;fill-opacity:0.127209;stroke:#000000;stroke-width:0.00299107;stroke-miterlimit:4;stroke-dasharray:none;paint-order:markers stroke fill"
       d="m 6.194955,1.4378545 c -0.100997,-0.0548 -0.187534,-0.1392 -0.25491,-0.24868 l -0.05878,-0.0955 V 0.89494461 c 0,-0.19054 0.0013,-0.20123 0.03067,-0.25925 0.03995,-0.0788 0.19118,-0.22804003 0.288065,-0.28419003 l 0.07642,-0.0443 h 0.183893 0.183896 l 0.08804,0.054 c 0.108852,0.0668 0.163621,0.11875 0.229415,0.21765003 0.07246,0.10894 0.08019,0.14426 0.07509,0.3431199 -0.005,0.19464999 -0.01228,0.21612999 -0.115234,0.33984999 -0.06387,0.0768 -0.21164,0.18294 -0.281623,0.20237 -0.02421,0.007 -0.118435,0.0121 -0.209386,0.012 -0.163679,-2.5e-4 -0.166079,-5.3e-4 -0.235558,-0.0383 z"
       id="path1125-7"
       inkscape:connector-curvature="0"
       inkscape:export-xdpi="96"
       inkscape:export-ydpi="96" />
    <path
       style="fill:#ffdd55;fill-opacity:0.127209;stroke:#000000;stroke-width:0.00299107;stroke-miterlimit:4;stroke-dasharray:none;paint-order:markers stroke fill"
       d="m 6.194098,1.4309545 c -0.09096,-0.0528 -0.177144,-0.13669 -0.24206,-0.23557 l -0.05896,-0.0898 V 0.89911461 c 0,-0.18696 0.0024,-0.21143 0.02532,-0.25879 0.03274,-0.0676 0.175747,-0.21224003 0.270404,-0.27342003 l 0.0741,-0.0479 h 0.195025 0.195024 l 0.0861,0.0537 c 0.103878,0.0647 0.20013,0.16794003 0.25206,0.27025003 l 0.03837,0.0756 -0.0042,0.19299 c -0.0041,0.18831989 -0.005,0.19441989 -0.03864,0.25204989 -0.04574,0.0784 -0.162047,0.19155 -0.255858,0.24891 l -0.07585,0.0464 -0.2008,0.003 -0.200798,0.003 z"
       id="path1127-6"
       inkscape:connector-curvature="0"
       inkscape:export-xdpi="96"
       inkscape:export-ydpi="96" />
  </g>
</svg>
