<?xml version="1.0" encoding="UTF-8" standalone="no"?>
<svg
   xmlns:dc="http://purl.org/dc/elements/1.1/"
   xmlns:cc="http://creativecommons.org/ns#"
   xmlns:rdf="http://www.w3.org/1999/02/22-rdf-syntax-ns#"
   xmlns:svg="http://www.w3.org/2000/svg"
   xmlns="http://www.w3.org/2000/svg"
   xmlns:sodipodi="http://sodipodi.sourceforge.net/DTD/sodipodi-0.dtd"
   xmlns:inkscape="http://www.inkscape.org/namespaces/inkscape"
   width="39.041664mm"
   height="39.041664mm"
   viewBox="0 0 39.041664 39.041664"
   version="1.1"
   id="svg8"
   inkscape:version="1.0.2 (e86c870879, 2021-01-15)"
   sodipodi:docname="Status_icon.svg">
  <defs
     id="defs2">
    <inkscape:path-effect
       effect="fillet_chamfer"
       id="path-effect866"
       is_visible="true"
       lpeversion="1"
       satellites_param="F,0,0,1,0,0,0,47 @ F,0,0,1,0,0,0,47 @ F,0,0,1,0,0,0,47 @ F,0,0,1,0,0,0,47"
       unit="px"
       method="auto"
       mode="F"
       radius="0"
       chamfer_steps="47"
       flexible="false"
       use_knot_distance="true"
       apply_no_radius="true"
       apply_with_radius="true"
       only_selected="false"
       hide_knots="false" />
  </defs>
  <sodipodi:namedview
     id="base"
     pagecolor="#ffffff"
     bordercolor="#666666"
     borderopacity="1.0"
     inkscape:pageopacity="0.0"
     inkscape:pageshadow="2"
     inkscape:zoom="4"
     inkscape:cx="23.040936"
     inkscape:cy="85.097467"
     inkscape:document-units="px"
     inkscape:current-layer="layer1"
     inkscape:document-rotation="0"
     showgrid="true"
     inkscape:window-width="1912"
     inkscape:window-height="1021"
     inkscape:window-x="0"
     inkscape:window-y="0"
     inkscape:window-maximized="1"
     inkscape:lockguides="false"
     showguides="false"
     showborder="false"
     inkscape:showpageshadow="false"
     fit-margin-top="1"
     fit-margin-right="1"
     lock-margins="true"
     fit-margin-left="1"
     fit-margin-bottom="1">
    <inkscape:grid
       type="xygrid"
       id="grid857"
       originx="-21.489521"
       originy="-55.885352" />
  </sodipodi:namedview>
  <metadata
     id="metadata5">
    <rdf:RDF>
      <cc:Work
         rdf:about="">
        <dc:format>image/svg+xml</dc:format>
        <dc:type
           rdf:resource="http://purl.org/dc/dcmitype/StillImage" />
        <dc:title></dc:title>
      </cc:Work>
    </rdf:RDF>
  </metadata>
  <g
     inkscape:label="Layer 1"
     inkscape:groupmode="layer"
     id="layer1"
     transform="translate(-21.489522,-55.885355)">
    <g
       id="g970">
      <path
         id="rect844"
         style="opacity:1;fill:#4d4d4d;fill-opacity:0.992157;stroke:none;stroke-width:1;stroke-opacity:0.992157"
         d="m 31.749938,56.885355 c -5.130268,0 -9.260416,4.130148 -9.260416,9.260416 v 18.520833 c 0,5.130268 4.130148,9.260417 9.260416,9.260417 h 18.520833 c 5.130268,0 9.260417,-4.130149 9.260417,-9.260417 V 66.145771 c 0,-5.130268 -4.130149,-9.260416 -9.260417,-9.260416 z m 1.322917,2.645833 h 15.875 c 4.397372,0 7.937499,3.540127 7.937499,7.9375 v 15.875 c 0,4.397372 -3.540127,7.937499 -7.937499,7.937499 h -15.875 c -4.397373,0 -7.9375,-3.540127 -7.9375,-7.937499 v -15.875 c 0,-4.397373 3.540127,-7.9375 7.9375,-7.9375 z" />
      <path
         id="rect844-3"
         style="opacity:1;fill:#4d4d4d;fill-opacity:0.992157;stroke:none;stroke-width:2.77648;stroke-opacity:0.992157"
         d="m 48.068359,22.357422 c -14.244091,0 -25.710937,11.466846 -25.710937,25.710937 v 25.710938 h 8.541016 l 10.4375,-35.794922 c 0,0 0.586505,-0.626761 1.876953,-0.675781 0.18435,-0.0068 0.382235,-0.0025 0.595703,0.01758 1.758822,0.165657 2.164062,1.279297 2.164062,1.279297 l 0.921875,56.25 8.158203,-36.72461 c -0.02986,-0.01172 0.917868,-1.401651 2.316407,-1.138671 1.701781,0.320012 2.318359,1.263671 2.318359,1.263671 l 3.802734,22.839844 3.660157,-7.316406 h 31.144531 10.939458 2.36328 v 4.724609 H 109.23438 98.294922 70.066406 l -8.84375,17.695313 -4.193359,-25.179688 -9.869141,44.386717 c 0,0 -1.464557,0.75902 -2.523437,0.60742 -1.405561,-0.20126 -2.140625,-1.08008 -2.140625,-1.08008 L 41.505859,54.298828 34.441406,78.503906 H 22.357422 v 20.986328 c 0,14.244096 11.466846,25.710936 25.710937,25.710936 h 51.421875 c 14.244096,0 25.710936,-11.46684 25.710936,-25.710936 V 48.068359 c 0,-14.244091 -11.46684,-25.710937 -25.710936,-25.710937 z"
         transform="matrix(0.26458332,0,0,0.26458332,21.489583,55.885416)" />
    </g>
  </g>
</svg>
