<?xml version="1.0" encoding="UTF-8" standalone="no"?>
<svg
   xmlns:dc="http://purl.org/dc/elements/1.1/"
   xmlns:cc="http://creativecommons.org/ns#"
   xmlns:rdf="http://www.w3.org/1999/02/22-rdf-syntax-ns#"
   xmlns:svg="http://www.w3.org/2000/svg"
   xmlns="http://www.w3.org/2000/svg"
   xmlns:sodipodi="http://sodipodi.sourceforge.net/DTD/sodipodi-0.dtd"
   xmlns:inkscape="http://www.inkscape.org/namespaces/inkscape"
   width="39.041668mm"
   height="39.041668mm"
   viewBox="0 0 39.041668 39.041668"
   version="1.1"
   id="svg8"
   inkscape:version="1.0.2 (e86c870879, 2021-01-15)"
   sodipodi:docname="Status_icon.svg">
  <defs
     id="defs2" />
  <sodipodi:namedview
     id="base"
     pagecolor="#ffffff"
     bordercolor="#666666"
     borderopacity="1.0"
     inkscape:pageopacity="0.0"
     inkscape:pageshadow="2"
     inkscape:zoom="2.8284271"
     inkscape:cx="44.852285"
     inkscape:cy="69.146999"
     inkscape:document-units="px"
     inkscape:current-layer="layer1"
     inkscape:document-rotation="0"
     showgrid="false"
     inkscape:window-width="1912"
     inkscape:window-height="1021"
     inkscape:window-x="0"
     inkscape:window-y="0"
     inkscape:window-maximized="1"
     inkscape:lockguides="false"
     showguides="false"
     showborder="false"
     inkscape:showpageshadow="false"
     fit-margin-top="1"
     fit-margin-right="1"
     lock-margins="true"
     fit-margin-left="1"
     fit-margin-bottom="1">
    <inkscape:grid
       type="xygrid"
       id="grid857"
       originx="-21.489582"
       originy="-55.885413" />
  </sodipodi:namedview>
  <metadata
     id="metadata5">
    <rdf:RDF>
      <cc:Work
         rdf:about="">
        <dc:format>image/svg+xml</dc:format>
        <dc:type
           rdf:resource="http://purl.org/dc/dcmitype/StillImage" />
        <dc:title></dc:title>
      </cc:Work>
    </rdf:RDF>
  </metadata>
  <g
     inkscape:label="Layer 1"
     inkscape:groupmode="layer"
     id="layer1"
     transform="translate(-21.489583,-55.885416)">
    <g
       id="g972">
      <path
         id="rect861-6"
         style="opacity:0.9895;fill:#4d4d4d;stroke:none;stroke-width:3.77953;stroke-opacity:0.992157"
         d="m 90,215 c -2.769997,0 -5,2.23 -5,5 v 130 c 0,2.77 2.230003,5 5,5 h 130 c 2.77,0 5,-2.23 5,-5 V 220 c 0,-2.77 -2.23,-5 -5,-5 z m 5,10 H 215 V 345 H 95 Z"
         transform="scale(0.26458333)" />
      <path
         id="rect861-6-7"
         style="opacity:0.9895;fill:#4d4d4d;stroke:none;stroke-width:2.63217;stroke-opacity:0.992157"
         d="M 108.48242,235 C 106.55332,235 105,236.55332 105,238.48242 v 41.65235 h 8.54102 l 10.4375,-35.79493 c 0,0 0.76493,-0.81906 2.47265,-0.6582 1.75882,0.16565 2.16406,1.2793 2.16406,1.2793 l 0.92188,56.25 8.1582,-36.72461 c -0.0297,-0.0117 0.91787,-1.40165 2.31641,-1.13867 1.70178,0.32001 2.31836,1.26367 2.31836,1.26367 l 3.80273,22.83984 3.66016,-7.3164 h 31.14453 10.93945 2.36328 v 4.72461 h -2.36328 -10.93945 -28.22852 l -8.84375,17.69531 -4.19335,-25.17969 -9.86915,44.38672 c 0,0 -1.46455,0.75902 -2.52343,0.60742 -1.40556,-0.20124 -2.14063,-1.08008 -2.14063,-1.08008 l -0.99023,-60.63476 -7.06446,24.20508 H 105 v 44.1582 c 0,1.9291 1.55332,3.48242 3.48242,3.48242 h 90.53516 c 1.9291,0 3.48242,-1.55332 3.48242,-3.48242 V 238.48242 C 202.5,236.55332 200.94668,235 199.01758,235 Z"
         transform="scale(0.26458333)" />
    </g>
  </g>
</svg>
